Coordinates
version=1
nRows=22
nColumns=24
inDegrees=yes

Units are S.I. units (second, meters, Newtons, ...)
Angles are in degrees.

endheader
time	torso_tilt	torso_list	torso_rotation	torso_tx	torso_ty	torso_tz	lumbar_extension	lumbar_bending	lumbar_rotation	hip_flexion_r	hip_adduction_r	hip_rotation_r	knee_angle_r	ankle_angle_r	subtalar_angle_r	mtp_angle_r	hip_flexion_l	hip_adduction_l	hip_rotation_l	knee_angle_l	ankle_angle_l	subtalar_angle_l	mtp_angle_l
     27.62000000	    -56.49021520	      0.81226042	     -1.69721915	      0.15535666	      0.81784594	      0.01252470	     28.93988836	      0.93118761	     -1.44511093	     96.83329540	     -7.71593676	     -4.34314184	   -104.96760955	     36.00105547	      3.69375385	      0.00000000	    100.40608331	    -11.73791361	     -0.19362551	   -103.02977586	     34.57980493	      3.76506885	      0.00000000
     27.63000000	    -56.26547759	      0.76495171	     -1.74581311	      0.15487544	      0.82161408	      0.01266682	     28.81858509	      0.93529306	     -1.43057932	     96.34406820	     -7.58351354	     -4.39420953	   -104.47161723	     35.88389598	      3.58555391	      0.00000000	     99.92288742	    -11.68873769	     -0.12116741	   -102.54576352	     34.44406163	      3.70798920	      0.00000000
     27.64000000	    -56.02795543	      0.72200362	     -1.81942521	      0.15441509	      0.82558387	      0.01280263	     28.67811912	      0.93002404	     -1.39035570	     95.83418819	     -7.44833491	     -4.45846487	   -103.94622250	     35.77854887	      3.48981228	      0.00000000	     99.42104698	    -11.64433572	     -0.05057657	   -102.02097896	     34.32614749	      3.63683954	      0.00000000
     27.65000000	    -55.79736789	      0.69246632	     -1.84194090	      0.15388430	      0.82967209	      0.01291981	     28.58115485	      0.90095664	     -1.38436547	     95.27715112	     -7.32937244	     -4.51710519	   -103.39310477	     35.66579584	      3.37467641	      0.00000000	     98.86170423	    -11.57424993	      0.01157729	   -101.47530316	     34.19020039	      3.57077759	      0.00000000
     27.66000000	    -55.54620727	      0.66633174	     -1.89109869	      0.15329421	      0.83391242	      0.01306082	     28.48749148	      0.88161420	     -1.36279744	     94.68724011	     -7.19259628	     -4.56057719	   -102.83329697	     35.52283035	      3.30517124	      0.00000000	     98.26911394	    -11.51670041	      0.07689011	   -100.92671003	     34.03212342	      3.51491878	      0.00000000
     27.67000000	    -55.29081164	      0.64109674	     -1.84389025	      0.15275089	      0.83856541	      0.01318816	     28.40038122	      0.80426947	     -1.39688002	     94.03384896	     -7.08523295	     -4.62292156	   -102.20480546	     35.38274699	      3.19968940	      0.00000000	     97.61655255	    -11.42579046	      0.13812309	   -100.29929866	     33.88009784	      3.42092461	      0.00000000
     27.68000000	    -55.02985016	      0.61027041	     -1.82922579	      0.15217640	      0.84328940	      0.01336643	     28.30616580	      0.75404790	     -1.39848241	     93.37752988	     -6.96934955	     -4.67788680	   -101.56291238	     35.23944961	      3.07891425	      0.00000000	     96.94911294	    -11.32722706	      0.20551900	    -99.65187917	     33.71519107	      3.36153142	      0.00000000
     27.69000000	    -54.77076800	      0.58272395	     -1.84789748	      0.15156696	      0.84791133	      0.01351124	     28.23429056	      0.69194243	     -1.38912357	     92.69215854	     -6.82310813	     -4.75638447	   -100.92526513	     35.11439530	      2.94523102	      0.00000000	     96.28067907	    -11.24633560	      0.30084994	    -99.03923542	     33.57041583	      3.27109001	      0.00000000
     27.70000000	    -54.48377901	      0.57641444	     -1.81399690	      0.15100624	      0.85294410	      0.01376413	     28.11536379	      0.59393358	     -1.39758997	     91.99733714	     -6.70548838	     -4.83773693	   -100.23543555	     34.93634334	      2.81489539	      0.00000000	     95.58712590	    -11.14528510	      0.38166150	    -98.35545032	     33.39571734	      3.15493154	      0.00000000
     27.71000000	    -54.22707464	      0.56281523	     -1.84005244	      0.15058506	      0.85799345	      0.01390683	     28.02046563	      0.50548568	     -1.37756837	     91.27897963	     -6.58468946	     -4.95882661	    -99.50510445	     34.77796125	      2.72802244	      0.00000000	     94.89042959	    -11.05859751	      0.49793884	    -97.66414095	     33.20093989	      3.05936872	      0.00000000
     27.72000000	    -53.92541305	      0.56603319	     -1.82000160	      0.15000718	      0.86317259	      0.01414852	     27.89625166	      0.37492662	     -1.35313563	     90.54159352	     -6.50266408	     -5.08896176	    -98.78444336	     34.63897728	      2.64270700	      0.00000000	     94.18396487	    -10.93075252	      0.62826152	    -96.96691816	     33.02124057	      2.97051759	      0.00000000
     27.73000000	    -53.75595224	      0.53984203	     -1.98305116	      0.15005087	      0.86821422	      0.01426838	     27.81721078	      0.35362863	     -1.19969228	     89.83028954	     -6.39666648	     -5.23436187	    -97.97298862	     34.49962992	      2.56460013	      0.00000000	     93.50545496	    -10.84280570	      0.73538483	    -96.19786937	     32.82892074	      2.86247397	      0.00000000
     27.74000000	    -53.57777621	      0.49164025	     -2.08371554	      0.15020652	      0.87351459	      0.01436023	     27.71070775	      0.36553417	     -1.09334456	     89.12063749	     -6.33696589	     -5.36031246	    -97.12634134	     34.34596467	      2.52176923	      0.00000000	     92.79627957	    -10.73892722	      0.79847156	    -95.36917922	     32.61581751	      2.76958975	      0.00000000
     27.75000000	    -53.25965348	      0.48951179	     -2.06712799	      0.14971729	      0.87901205	      0.01452569	     27.55947940	      0.24066122	     -1.08869892	     88.35067621	     -6.25501622	     -5.50486349	    -96.33368678	     34.20306730	      2.50335443	      0.00000000	     92.05729007	    -10.64965104	      0.91158579	    -94.61405842	     32.39681260	      2.67002778	      0.00000000
     27.76000000	    -52.98476005	      0.49527847	     -2.08145129	      0.14939637	      0.88431753	      0.01465891	     27.44968578	      0.08640504	     -1.07094360	     87.56264829	     -6.14336708	     -5.69550098	    -95.52462927	     34.07445829	      2.45494063	      0.00000000	     91.32949989	    -10.58859051	      1.05089214	    -93.86890767	     32.21274720	      2.55106166	      0.00000000
     27.77000000	    -52.65717764	      0.49637839	     -2.08255460	      0.14905916	      0.88994243	      0.01478455	     27.25946748	     -0.03104384	     -1.09043215	     86.80899628	     -6.03975387	     -5.86149274	    -94.69671901	     33.87680614	      2.46349800	      0.00000000	     90.59508112	    -10.54806293	      1.15305642	    -93.09117888	     32.00663111	      2.46025779	      0.00000000
     27.78000000	    -52.33681703	      0.52762181	     -2.06593048	      0.14872660	      0.89551977	      0.01483564	     27.11403738	     -0.23219615	     -1.15412659	     85.99659640	     -5.91353733	     -6.09602625	    -93.84584472	     33.73163918	      2.44995109	      0.00000000	     89.84382086	    -10.55515177	      1.29719642	    -92.35111417	     31.83399450	      2.33395164	      0.00000000
     27.79000000	    -51.99530954	      0.53004514	     -2.05147100	      0.14839749	      0.90116349	      0.01497843	     26.92254550	     -0.34744959	     -1.20395343	     85.22790227	     -5.82113363	     -6.28465748	    -93.00836033	     33.53795753	      2.46698630	      0.00000000	     89.08385446	    -10.55628828	      1.36342661	    -91.57155475	     31.64186966	      2.23933256	      0.00000000
     27.80000000	    -51.66558056	      0.51295751	     -2.07265935	      0.14806146	      0.90678484	      0.01512879	     26.76106695	     -0.39295179	     -1.23066674	     84.44234210	     -5.75093102	     -6.45093480	    -92.16482939	     33.31872411	      2.55661795	      0.00000000	     88.28960526	    -10.57509769	      1.37181821	    -90.78298181	     31.43213261	      2.18073950	      0.00000000
     27.81000000	    -51.34270494	      0.50618642	     -2.06589298	      0.14768057	      0.91262207	      0.01530012	     26.70576400	     -0.46706148	     -1.24330395	     83.52559061	     -5.73436657	     -6.65084035	    -91.29995712	     33.18852934	      2.61069356	      0.00000000	     87.36527920	    -10.57771515	      1.35867615	    -89.95036029	     31.25901857	      2.09223016	      0.00000000
     27.82000000	    -51.00128874	      0.49931425	     -2.08505985	      0.14732549	      0.91840177	      0.01545616	     26.59667198	     -0.54334739	     -1.23054231	     82.64198045	     -5.71984181	     -6.87778815	    -90.44096627	     33.02930808	      2.70744087	      0.00000000	     86.49310851	    -10.58826363	      1.35948498	    -89.13274273	     31.06112081	      2.03939733	      0.00000000
     27.83000000	    -50.66022332	      0.48846836	     -2.05191191	      0.14678446	      0.92398284	      0.01562278	     26.56528814	     -0.63835675	     -1.24882560	     81.70086592	     -5.70228255	     -7.08460319	    -89.62072878	     32.89543682	      2.78154461	      0.00000000	     85.56302956	    -10.60064191	      1.35255131	    -88.35002983	     30.89132024	      2.02754349	      0.00000000
